<svg xmlns:dc="http://purl.org/dc/elements/1.1/" xmlns:cc="http://creativecommons.org/ns#" xmlns:rdf="http://www.w3.org/1999/02/22-rdf-syntax-ns#" xmlns:svg="http://www.w3.org/2000/svg" xmlns="http://www.w3.org/2000/svg" xmlns:sodipodi="http://sodipodi.sourceforge.net/DTD/sodipodi-0.dtd" xmlns:inkscape="http://www.inkscape.org/namespaces/inkscape" version="1.1" x="0px" y="0px" viewBox="0 0 100 125"><g transform="translate(0,-952.36218)"><path style="font-size:medium;font-style:normal;font-variant:normal;font-weight:normal;font-stretch:normal;text-indent:0;text-align:start;text-decoration:none;line-height:normal;letter-spacing:normal;word-spacing:normal;text-transform:none;direction:ltr;block-progression:tb;writing-mode:lr-tb;text-anchor:start;baseline-shift:baseline;opacity:1;color:#000000;fill:#000000;fill-opacity:1;stroke:none;stroke-width:6;marker:none;visibility:visible;display:inline;overflow:visible;enable-background:accumulate;font-family:Sans;-inkscape-font-specification:Sans" d="m 35,11 c -3.272108,0 -6,2.72789 -6,6 l 0,6 -18,0 c -3.2722083,0 -6,2.72779 -6,6 l 0,54 c 0,3.2722 2.7277917,6 6,6 l 78,0 c 3.272208,0 6,-2.7278 6,-6 l 0,-54 c 0,-3.27221 -2.727792,-6 -6,-6 l -18,0 0,-6 c 0,-3.27211 -2.727892,-6 -6,-6 z m 0,6 30,0 0,6 -30,0 z m -24,12 78,0 0,19.75 c -3.205406,0.922054 -6.54715,1.742999 -10,2.4375 L 79,50 c 0,-1.877061 -1.470546,-3 -3,-3 l -10,0 c -1.570753,1.57e-4 -2.999843,1.429247 -3,3 l 0,3.4375 C 58.768119,53.800096 54.432036,54 50,54 45.570761,54 41.234546,53.827787 37,53.46875 L 37,50 c -1.57e-4,-1.570753 -1.429247,-2.999843 -3,-3 l -10,0 c -1.619302,0 -3,1.735354 -3,3 l 0,1.15625 C 17.547387,50.459822 14.201726,49.672103 11,48.75 z m 16,24 4,0 0,6 -4,0 z m 42,0 4,0 0,6 -4,0 z M 89,54.9375 89,83 11,83 11,55 c 3.214162,0.879669 6.57505,1.618666 10,2.28125 L 21,62 c 1.57e-4,1.570753 1.429247,2.999843 3,3 l 10,0 c 1.570753,-1.57e-4 2.999843,-1.429247 3,-3 l 0,-2.5 c 4.240364,0.346907 8.584734,0.5 13,0.5 4.425531,0 8.756178,-0.212768 13,-0.5625 L 63,62 c 1.57e-4,1.570753 1.429247,2.999843 3,3 l 10,0 c 1.570753,-1.57e-4 2.999843,-1.429247 3,-3 l 0,-4.75 c 3.436278,-0.662657 6.77224,-1.432841 10,-2.3125 z" transform="translate(0,952.36218)"/></g><text x="0" y="115" fill="#000000" font-size="5px" font-weight="bold" font-family="'Helvetica Neue', Helvetica, Arial-Unicode, Arial, Sans-serif">Created by throwaway icons</text><text x="0" y="120" fill="#000000" font-size="5px" font-weight="bold" font-family="'Helvetica Neue', Helvetica, Arial-Unicode, Arial, Sans-serif">from the Noun Project</text></svg>