<svg xmlns="http://www.w3.org/2000/svg" xmlns:xlink="http://www.w3.org/1999/xlink" viewBox="0 0 48 60" version="1.1" x="0px" y="0px"><path d="M25.1843419,15.6830335 L25.1843423,19.6829629 C25.1745057,19.68301 25.1646663,19.6830335 25.1548242,19.6830335 L25.1843423,19.6830335 C25.1744686,19.6830335 25.1646286,19.6831766 25.1548242,19.6834608 L25.1548237,15.6831188 C25.1646564,15.683062 25.1744958,15.6830335 25.1843419,15.6830335 Z M25.1843423,19.6829629 L25.1843419,15.6830335 L25.1548242,19.6834608 C24.6158167,19.699083 24.1845017,20.1411682 24.1845017,20.6842418 L24.184502,31.441218 C24.1845021,31.9883125 24.6342568,32.4424262 25.1890573,32.4424262 L25.4100637,32.4424263 C28.7189526,32.4424268 31.6748541,35.1171034 32.0026268,38.4164836 L32.505744,43.4808913 C32.8332938,46.7780265 30.4150347,49.4549477 27.1039132,49.4549477 L26.3139365,49.4549477 C20.4386024,49.4549477 14.5403258,44.8305847 13.1366365,39.1261438 C13.1366365,39.1261438 11.4251101,34.8197547 11.4251101,26.0627289 C11.4251101,17.3057032 13.1366366,12.999314 13.1366366,12.999314 C14.4537652,7.27408017 20.4422272,2.67051019 26.3189023,2.67051019 L27.1483653,2.67051019 C30.4569476,2.67051019 32.8374729,5.33448527 32.4539634,8.62066507 L31.857349,13.732878 C31.4764834,16.9964026 28.4908044,19.6671478 25.1843423,19.6829629 Z M25.1548237,15.6830335 C26.4398363,15.6830334 27.7372041,14.5297458 27.8843134,13.2692099 L28.4809278,8.15699692 C28.5865921,7.25159085 28.0681117,6.67051019 27.1483653,6.67051019 L26.3189023,6.67051019 C22.2494364,6.67051019 17.9215788,10.0415448 17.034809,13.8961149 L16.966442,14.1932894 L16.8538171,14.4766661 C16.7293917,14.7897341 16.478347,15.6354687 16.2053924,17.0205386 C15.7206062,19.4805182 15.4251101,22.491878 15.4251101,26.0627289 C15.4251101,29.6335799 15.7206062,32.6449396 16.2053924,35.1049193 C16.4783469,36.4899892 16.7293917,37.3357238 16.8538171,37.6487918 L16.9551895,37.903856 L17.020772,38.1703764 C17.9847182,42.087749 22.2802134,45.4549477 26.3139365,45.4549477 L27.1039132,45.4549477 C28.0471452,45.4549477 28.6192865,44.8220161 28.5253375,43.8763198 L28.0222203,38.8119121 C27.8978269,37.5597605 26.6642563,36.4424265 25.4100631,36.4424263 L25.1890566,36.4424262 C22.426516,36.4424258 20.1845021,34.1988518 20.184502,31.4412181 L20.1845017,20.6842419 C20.1845017,17.9333459 22.4052391,15.6990074 25.1548237,15.6830335 Z" fill="#000000" fill-rule="nonzero" transform="translate(21.980282, 26.062729) rotate(-45.000000) translate(-21.980282, -26.062729) "/><text x="0" y="63" fill="#000000" font-size="5px" font-weight="bold" font-family="'Helvetica Neue', Helvetica, Arial-Unicode, Arial, Sans-serif">Created by Kevin Eichhorn</text><text x="0" y="68" fill="#000000" font-size="5px" font-weight="bold" font-family="'Helvetica Neue', Helvetica, Arial-Unicode, Arial, Sans-serif">from the Noun Project</text></svg>