<svg xmlns="http://www.w3.org/2000/svg" xmlns:xlink="http://www.w3.org/1999/xlink" version="1.1" x="0px" y="0px" viewBox="0 0 24 30" style="enable-background:new 0 0 24 24;" xml:space="preserve"><g><path d="M17.5,14h-11L6,13.5c0-2.312,1.087-3.922,3-4.479V3.15C8.335,2.812,7.332,2.175,7.333,0.496l0.5-0.5h8.276l0.5,0.5   c0,1.674-0.955,2.313-1.607,2.652v5.881C16.913,9.618,18,11.226,18,13.5L17.5,14z M7.02,13h9.958   c-0.148-1.663-1.054-2.755-2.587-3.099l-0.391-0.488V2.839l0.276-0.447c0.564-0.279,1.131-0.559,1.288-1.396H8.379   C8.547,1.814,9.132,2.102,9.617,2.34l0.107,0.053L10,2.84v6.573l-0.4,0.49C7.701,10.29,7.128,11.709,7.02,13z"/><path d="M12.47,13.792v5.058v2.529c0.004,0.421-0.009,0.843,0.009,1.264c-0.145,0.421-0.304,0.843-0.509,1.264   c-0.205-0.421-0.363-0.843-0.509-1.264c0.018-0.421,0.005-0.843,0.009-1.264v-2.529v-5.058v-0.5h1V13.792z"/></g><text x="0" y="39" fill="#000000" font-size="5px" font-weight="bold" font-family="'Helvetica Neue', Helvetica, Arial-Unicode, Arial, Sans-serif">Created by ✦ Shmidt Sergey ✦</text><text x="0" y="44" fill="#000000" font-size="5px" font-weight="bold" font-family="'Helvetica Neue', Helvetica, Arial-Unicode, Arial, Sans-serif">from the Noun Project</text></svg>